<svg width="512" height="512" viewBox="0 0 100 100" xmlns="http://www.w3.org/2000/svg">
  <defs>
    <linearGradient id="sky" x1="0" y1="0" x2="0" y2="1">
      <stop offset="0%" stop-color="#f6e9d2"/>
      <stop offset="100%" stop-color="#f0d9b8"/>
    </linearGradient>
    <radialGradient id="sunGlow" cx="50%" cy="50%" r="50%">
      <stop offset="0%" stop-color="#f3a86a"/>
      <stop offset="100%" stop-color="#d97a46" stop-opacity="0"/>
    </radialGradient>
  </defs>

  <rect width="100" height="100" rx="22" fill="url(#sky)"/>

  <circle cx="68" cy="30" r="20" fill="url(#sunGlow)"/>
  <circle cx="68" cy="30" r="9" fill="#e8935b"/>

  <path d="M4 72 L28 40 L44 58 L58 34 L74 56 L96 30 L96 100 L4 100 Z" fill="#5b7089" opacity="0.55"/>

  <path d="M-4 82 L22 46 L36 62 L52 38 L68 60 L88 44 L104 82 Z" fill="#3e5169"/>

  <path d="M22 46 L28 54 L34 48 L30 44 Z" fill="#f6e9d2" opacity="0.85"/>
  <path d="M52 38 L58 46 L64 40 L59 35 Z" fill="#f6e9d2" opacity="0.8"/>

  <path d="M-4 84 Q50 92 104 84 L104 100 L-4 100 Z" fill="#52705c"/>
</svg>
